<svg width="126" height="10" viewBox="0 0 126 10" fill="none" xmlns="http://www.w3.org/2000/svg">
<path d="M3.396 2.004V4.104H1.152C0.84 4.104 0.6 4.356 0.6 4.656V8.448C0.6 8.76 0.84 9 1.152 9H4.788V7.608H1.992V5.496H4.236C4.548 5.496 4.788 5.244 4.788 4.944V1.164C4.788 0.852 4.548 0.599999 4.236 0.599999H0.6V2.004H3.396ZM6.00234 1.164V8.448C6.00234 8.76 6.24234 9 6.55434 9H9.63834C9.95034 9 10.1903 8.76 10.1903 8.448V1.164C10.1903 0.852 9.95034 0.599999 9.63834 0.599999H6.55434C6.24234 0.599999 6.00234 0.852 6.00234 1.164ZM8.79834 7.608H7.39434V2.004H8.79834V7.608ZM14.2007 2.004V4.104H11.9567C11.6447 4.104 11.4047 4.356 11.4047 4.656V8.448C11.4047 8.76 11.6447 9 11.9567 9H15.5927V7.608H12.7967V5.496H15.0407C15.3527 5.496 15.5927 5.244 15.5927 4.944V1.164C15.5927 0.852 15.3527 0.599999 15.0407 0.599999H11.4047V2.004H14.2007ZM19.603 2.004V4.104H17.359C17.047 4.104 16.807 4.356 16.807 4.656V8.448C16.807 8.76 17.047 9 17.359 9H20.995V7.608H18.199V5.496H20.443C20.755 5.496 20.995 5.244 20.995 4.944V1.164C20.995 0.852 20.755 0.599999 20.443 0.599999H16.807V2.004H19.603ZM22.2094 7.608V9H23.0494C23.3494 9 23.6014 8.76 23.6014 8.448V7.608H22.2094ZM31.356 0.624C31.32 0.611999 31.272 0.599999 31.236 0.599999H28.152C27.84 0.599999 27.6 0.852 27.6 1.164V9H28.992V6.96C29.508 6.852 29.976 6.648 30.396 6.372V9H31.8V1.164C31.8 0.9 31.608 0.684 31.356 0.624ZM28.992 5.508V2.004H30.396V4.404C30.072 4.92 29.58 5.316 28.992 5.508ZM34.3943 0.599999H33.0023V8.448C33.0023 8.76 33.2423 9 33.5543 9H37.1903V7.608H34.3943V0.599999ZM39.7967 0.599999H38.4047V8.448C38.4047 8.76 38.6447 9 38.9567 9H42.5927V7.608H39.7967V0.599999ZM50.3521 0.624C50.3161 0.611999 50.2681 0.599999 50.2321 0.599999H46.5961V9.012H47.9881V6.96C48.4201 6.876 48.8161 6.708 49.1881 6.504L49.3921 6.888V9.012H50.7961V6.888L50.1601 5.7C50.4121 5.412 50.6281 5.1 50.7961 4.764V1.164C50.7841 0.9 50.6041 0.684 50.3521 0.624ZM47.9881 2.004H49.3921V4.404C49.0681 4.92 48.5761 5.316 47.9881 5.508V2.004ZM53.3904 9V0.599999H51.9984V9H53.3904ZM58.788 2.208V1.164C58.788 0.852 58.548 0.599999 58.236 0.599999H54.6V9H58.236C58.548 9 58.788 8.76 58.788 8.448V4.908H56.688V6.312C56.928 6.3 57.168 6.264 57.396 6.216V7.608H55.992V2.004H57.396V3.432C57.996 3.216 58.5 2.772 58.788 2.208ZM62.7983 0.599999V4.404C62.4743 4.92 61.9823 5.316 61.3943 5.508V0.599999H60.0023V9.012H61.3943V6.96C61.9103 6.852 62.3783 6.648 62.7983 6.372V9H64.1903V0.599999H62.7983ZM70.9967 0.599999H65.4047V2.004H67.5047V9H68.8967V2.004H70.9967V0.599999ZM76.4013 2.004V0.599999H72.7653C72.4533 0.599999 72.2133 0.852 72.2133 1.164V4.944C72.2133 5.244 72.4533 5.496 72.7653 5.496H75.0093V7.608H72.2133V9H75.8493C76.1613 9 76.4013 8.76 76.4013 8.448V4.656C76.4013 4.356 76.1613 4.104 75.8493 4.104H73.6053V2.004H76.4013ZM84.1607 0.624C84.1247 0.611999 84.0767 0.599999 84.0407 0.599999H80.4047V9.012H81.7967V6.96C82.2287 6.876 82.6247 6.708 82.9967 6.504L83.2007 6.888V9.012H84.6047V6.888L83.9687 5.7C84.2207 5.412 84.4367 5.1 84.6047 4.764V1.164C84.5927 0.9 84.4127 0.684 84.1607 0.624ZM81.7967 2.004H83.2007V4.404C82.8767 4.92 82.3847 5.316 81.7967 5.508V2.004ZM90.007 2.004V0.599999H86.359C86.047 0.599999 85.807 0.852 85.807 1.164V8.448C85.807 8.76 86.047 9 86.359 9H89.995V7.608H87.199V5.508H89.995V4.104H87.199V2.004H90.007ZM95.3974 2.004V0.599999H91.7614C91.4494 0.599999 91.2094 0.852 91.2094 1.164V4.944C91.2094 5.244 91.4494 5.496 91.7614 5.496H94.0054V7.608H91.2094V9H94.8454C95.1574 9 95.3974 8.76 95.3974 8.448V4.656C95.3974 4.356 95.1574 4.104 94.8454 4.104H92.6014V2.004H95.3974ZM100.812 2.004V0.599999H97.1637C96.8517 0.599999 96.6117 0.852 96.6117 1.164V8.448C96.6117 8.76 96.8517 9 97.1637 9H100.8V7.608H98.0037V5.508H100.8V4.104H98.0037V2.004H100.812ZM105.77 0.624C105.734 0.611999 105.686 0.599999 105.65 0.599999H102.014V9.012H103.406V6.96C103.838 6.876 104.234 6.708 104.606 6.504L104.81 6.888V9.012H106.214V6.888L105.578 5.7C105.83 5.412 106.046 5.1 106.214 4.764V1.164C106.202 0.9 106.022 0.684 105.77 0.624ZM103.406 2.004H104.81V4.404C104.486 4.92 103.994 5.316 103.406 5.508V2.004ZM110.212 0.599999L109.516 4.812L108.808 0.599999H107.416L108.736 8.544C108.772 8.808 109.012 9 109.288 9H110.212L111.616 0.599999H110.212ZM117.019 2.004V0.599999H113.371C113.059 0.599999 112.819 0.852 112.819 1.164V8.448C112.819 8.76 113.059 9 113.371 9H117.007V7.608H114.211V5.508H117.007V4.104H114.211V2.004H117.019ZM118.221 0.599999V9H121.857C122.169 9 122.409 8.76 122.409 8.448V1.164C122.409 0.852 122.169 0.599999 121.857 0.599999H118.221ZM121.017 7.608H119.613V2.004H121.017V7.608ZM123.623 7.608V9H124.463C124.763 9 125.015 8.76 125.015 8.448V7.608H123.623Z" fill="#ECECEC"/>
</svg>
